<svg width="30" height="30" viewBox="0 0 30 30" fill="none" xmlns="http://www.w3.org/2000/svg">
<g clip-path="url(#clip0_31_0)">
<path d="M23.7091 18.584C23.0949 17.9445 22.3541 17.6025 21.569 17.6025C20.7902 17.6025 20.0431 17.9381 19.4036 18.5776L17.4027 20.5721C17.2381 20.4835 17.0735 20.4012 16.9152 20.3188C16.6873 20.2049 16.472 20.0972 16.2884 19.9833C14.4142 18.7929 12.7109 17.2416 11.0774 15.2345C10.2859 14.2341 9.75404 13.392 9.36781 12.5372C9.88701 12.0623 10.3682 11.5684 10.8368 11.0935C11.0141 10.9163 11.1913 10.7326 11.3686 10.5554C12.6983 9.2257 12.6983 7.50347 11.3686 6.17382L9.64007 4.44526C9.44379 4.24898 9.24117 4.04636 9.05122 3.84375C8.67132 3.45118 8.27242 3.04595 7.86086 2.66605C7.24669 2.05821 6.51221 1.73529 5.73974 1.73529C4.96727 1.73529 4.22013 2.05821 3.58696 2.66605C3.58063 2.67238 3.58063 2.67238 3.5743 2.67871L1.42152 4.85049C0.61106 5.66095 0.148846 6.64869 0.0475384 7.79473C-0.104423 9.64359 0.440104 11.3658 0.857997 12.4929C1.88373 15.2598 3.41601 17.8242 5.70175 20.5721C8.47504 23.8836 11.8118 26.4986 15.6235 28.3411C17.0798 29.0313 19.0237 29.8481 21.1954 29.9874C21.3284 29.9937 21.4677 30 21.5943 30C23.057 30 24.2853 29.4745 25.2477 28.4298C25.2541 28.4171 25.2667 28.4108 25.2731 28.3981C25.6023 27.9992 25.9822 27.6383 26.3811 27.2521C26.6534 26.9925 26.932 26.7202 27.2042 26.4353C27.8311 25.7831 28.1603 25.0233 28.1603 24.2445C28.1603 23.4594 27.8247 22.7059 27.1852 22.0727L23.7091 18.584ZM25.9759 25.2512C25.9695 25.2512 25.9695 25.2576 25.9759 25.2512C25.7289 25.5172 25.4757 25.7578 25.2034 26.0237C24.7918 26.4163 24.374 26.8278 23.9814 27.2901C23.3419 27.9739 22.5884 28.2968 21.6007 28.2968C21.5057 28.2968 21.4044 28.2968 21.3094 28.2905C19.4289 28.1702 17.6813 27.4357 16.3707 26.8088C12.7869 25.074 9.64007 22.6109 7.02508 19.4894C4.86597 16.8871 3.42234 14.481 2.46625 11.8977C1.8774 10.3211 1.66212 9.09273 1.7571 7.93403C1.82042 7.19322 2.10534 6.57905 2.63087 6.05351L4.78999 3.8944C5.10024 3.60314 5.42949 3.44485 5.75241 3.44485C6.1513 3.44485 6.47422 3.68546 6.67683 3.88807C6.68317 3.8944 6.6895 3.90073 6.69583 3.90707C7.08206 4.26797 7.4493 4.64154 7.83554 5.04044C8.03182 5.24306 8.23443 5.44567 8.43705 5.65462L10.1656 7.38317C10.8368 8.05433 10.8368 8.67484 10.1656 9.346C9.98198 9.52962 9.8047 9.71324 9.62108 9.89053C9.08921 10.4351 8.58268 10.9416 8.03182 11.4355C8.01916 11.4481 8.00649 11.4545 8.00016 11.4671C7.45563 12.0116 7.55694 12.5435 7.67091 12.9044C7.67724 12.9234 7.68358 12.9424 7.68991 12.9614C8.13946 14.0505 8.77263 15.0762 9.73505 16.2982L9.74138 16.3045C11.4889 18.4573 13.3315 20.1352 15.3639 21.4206C15.6235 21.5852 15.8895 21.7182 16.1427 21.8448C16.3707 21.9588 16.586 22.0664 16.7696 22.1804C16.7949 22.193 16.8202 22.212 16.8456 22.2247C17.0608 22.3323 17.2634 22.383 17.4724 22.383C17.9979 22.383 18.3272 22.0537 18.4348 21.9461L20.6003 19.7807C20.8155 19.5654 21.1574 19.3058 21.5563 19.3058C21.9489 19.3058 22.2718 19.5527 22.4681 19.768C22.4744 19.7743 22.4744 19.7743 22.4808 19.7807L25.9695 23.2694C26.6217 23.9153 26.6217 24.5801 25.9759 25.2512Z" fill="black"/>
<path d="M16.2124 7.13621C17.8713 7.41481 19.3782 8.19994 20.5813 9.40296C21.7843 10.606 22.5631 12.1129 22.848 13.7718C22.9176 14.1897 23.2786 14.481 23.6901 14.481C23.7408 14.481 23.7851 14.4747 23.8357 14.4683C24.3043 14.3923 24.6145 13.9491 24.5386 13.4806C24.1966 11.4734 23.2469 9.64357 21.7969 8.19361C20.347 6.74365 18.5171 5.79389 16.51 5.45198C16.0414 5.376 15.6045 5.68625 15.5222 6.14847C15.4399 6.61068 15.7438 7.06023 16.2124 7.13621Z" fill="black"/>
<path d="M29.9654 13.2337C29.4019 9.92851 27.8443 6.92095 25.4509 4.52757C23.0575 2.13418 20.05 0.576584 16.7448 0.0130621C16.2826 -0.0692501 15.8457 0.247335 15.7634 0.70955C15.6874 1.1781 15.9977 1.61498 16.4662 1.6973C19.4168 2.1975 22.1078 3.59681 24.2479 5.73059C26.388 7.87071 27.781 10.5617 28.2812 13.5123C28.3508 13.9302 28.7117 14.2214 29.1233 14.2214C29.1739 14.2214 29.2183 14.2151 29.2689 14.2087C29.7311 14.1391 30.0477 13.6959 29.9654 13.2337Z" fill="black"/>
</g>
<defs>
<clipPath id="clip0_31_0">
<rect width="30" height="30" fill="white"/>
</clipPath>
</defs>
</svg>
